<!DOCTYPE svg PUBLIC "-//W3C//DTD SVG 1.1//EN" "http://www.w3.org/Graphics/SVG/1.1/DTD/svg11.dtd">
<!-- Uploaded to: SVG Repo, www.svgrepo.com, Transformed by: SVG Repo Mixer Tools -->
<svg fill="#d55941" version="1.1" id="Layer_1" xmlns="http://www.w3.org/2000/svg" xmlns:xlink="http://www.w3.org/1999/xlink" viewBox="0 0 512 512" xml:space="preserve" width="800px" height="800px">
<g id="SVGRepo_bgCarrier" stroke-width="0"/>
<g id="SVGRepo_tracerCarrier" stroke-linecap="round" stroke-linejoin="round"/>
<g id="SVGRepo_iconCarrier"> <g> <g> <rect x="140.539" y="467.561" width="15.674" height="15.673"/> </g> </g> <g> <g> <rect x="174.32" y="467.561" width="15.673" height="15.673"/> </g> </g> <g> <g> <rect x="208.112" y="467.561" width="15.674" height="15.673"/> </g> </g> <g> <g> <rect x="241.894" y="467.561" width="15.673" height="15.673"/> </g> </g> <g> <g> <path d="M256,18.775c-67.001,0-130.092,7.554-177.649,21.271C27.093,54.831,0,74.936,0,98.188v83.592 c0,35.298,61.771,59.47,140.539,71.217v158.138v7.837v32.914h15.674v-32.914h18.111v32.914h15.673v-32.914h18.111v32.914h15.673 v-32.914h18.112v32.914h15.673v-32.914v-7.837V261.182c11.132-0.02,22.299-0.26,33.315-0.703l62.73,172.36l0.002-0.001 l11.259,30.932l14.729-5.361l-11.258-30.931l17.019-6.193l11.258,30.931l14.729-5.361l-11.257-30.929l17.019-6.193l11.257,30.929 l14.729-5.361l-11.257-30.928l17.018-6.193l11.257,30.926l14.729-5.361l-13.938-38.292l-0.005,0.002l-50.787-139.545 c28.444-6.405,52.275-14.608,69.277-23.903C501.029,210.177,512,196.642,512,181.779V98.188C512,46.606,380.104,18.775,256,18.775 z M15.673,127.079C54.185,160.078,157.539,177.6,256,177.6c1.574,0,3.143-0.008,4.712-0.017l9.467,26.013 c-4.742,0.077-9.481,0.126-14.179,0.126c-65.573,0-127.121-7.336-173.307-20.657c-62.187-17.938-67.02-37.511-67.02-43.082 V127.079z M78.377,139.99c45.762-13.878,110.06-21.949,177.623-21.949s131.861,8.071,177.624,21.948 c-1.42,0.43-2.856,0.859-4.318,1.28C383.12,154.589,321.573,161.926,256,161.926S128.88,154.59,82.694,141.27 C81.232,140.848,79.797,140.42,78.377,139.99z M241.894,403.298h-85.682V255.142c27.519,3.444,56.666,5.437,85.682,5.926V403.298z M256,245.518c-65.573,0-127.121-7.336-173.307-20.657c-62.187-17.938-67.02-37.511-67.02-43.082v-12.904 C54.185,201.874,157.539,219.396,256,219.396c6.57,0,13.216-0.097,19.841-0.246l9.414,25.865 C275.556,245.347,265.758,245.518,256,245.518z M443.492,383.452l-80.513,29.3l-85.677-235.413 c31.086-0.751,61.026-3.144,88.617-7.033L443.492,383.452z M496.327,181.779c0,13.647-24.154,34.47-91.614,49.287l-8.734-24 c29.354-5.754,76.131-17.664,100.348-38.274V181.779z M496.327,139.983c0,9.184-10.064,19.31-28.341,28.515 c-18.794,9.467-45.467,17.608-77.433,23.661l-8.839-24.287c18.731-3.14,36.189-7.002,51.937-11.544 c28.574-8.241,49.628-18.138,62.676-29.31V139.983z M457.41,131.552c-47.644-18.298-122.546-29.185-201.41-29.185 c-78.866,0-153.767,10.887-201.41,29.185c-24.794-10.34-38.916-22.2-38.916-33.365c0-14.873,25.055-30.978,67.021-43.082 C128.88,41.785,190.427,34.449,256,34.449s127.12,7.336,173.306,20.658c41.966,12.103,67.021,28.208,67.021,43.081 C496.327,109.352,482.206,121.212,457.41,131.552z"/> </g> </g> <g> <g> <rect x="372.435" y="475.343" transform="matrix(0.9397 -0.342 0.342 0.9397 -142.3179 159.1897)" width="15.673" height="15.673"/> </g> </g> <g> <g> <rect x="404.214" y="463.812" transform="matrix(0.9397 -0.342 0.342 0.9397 -136.4576 169.3623)" width="15.674" height="15.673"/> </g> </g> <g> <g> <rect x="435.934" y="452.24" transform="matrix(0.9397 -0.342 0.342 0.9397 -130.5863 179.5113)" width="15.673" height="15.673"/> </g> </g> <g> <g> <rect x="467.671" y="440.678" transform="matrix(0.9397 -0.342 0.342 0.9397 -124.7184 189.6682)" width="15.673" height="15.673"/> </g> </g> </g>
</svg>