<!DOCTYPE svg PUBLIC "-//W3C//DTD SVG 1.1//EN" "http://www.w3.org/Graphics/SVG/1.1/DTD/svg11.dtd">
<!-- Uploaded to: SVG Repo, www.svgrepo.com, Transformed by: SVG Repo Mixer Tools -->
<svg width="800px" height="800px" viewBox="0 0 48 48" version="1" xmlns="http://www.w3.org/2000/svg" enable-background="new 0 0 48 48" fill="#000000">
<g id="SVGRepo_bgCarrier" stroke-width="0"/>
<g id="SVGRepo_tracerCarrier" stroke-linecap="round" stroke-linejoin="round"/>
<g id="SVGRepo_iconCarrier"> <path fill="#d55941" d="M44,18v-4H34V4h-4v10h-4V4h-4v10h-4V4h-4v10H4v4h10v4H4v4h10v4H4v4h10v10h4V34h4v10h4V34h4v10h4V34h10v-4H34 v-4h10v-4H34v-4H44z"/> <path fill="#d55941" d="M8,12v24c0,2.2,1.8,4,4,4h24c2.2,0,4-1.8,4-4V12c0-2.2-1.8-4-4-4H12C9.8,8,8,9.8,8,12z"/> <path fill="#d55941" d="M31,31H17c-1.1,0-2-0.9-2-2V19c0-1.1,0.9-2,2-2h14c1.1,0,2,0.9,2,2v10C33,30.1,32.1,31,31,31z"/> </g>
</svg>