<?xml version="1.0" encoding="utf-8"?>
<!-- Generator: Adobe Illustrator 24.3.0, SVG Export Plug-In . SVG Version: 6.00 Build 0)  -->
<svg version="1.1" id="Layer_1" xmlns="http://www.w3.org/2000/svg" xmlns:xlink="http://www.w3.org/1999/xlink" x="0px" y="0px"
	 viewBox="0 0 800 800" enable-background="new 0 0 800 800" xml:space="preserve">
<g>
	<g>
		<path fill="#d55941" d="M720.588,215.41H175.815c-0.479,0-0.844,0.114-1.293,0.146c-2.212-10.833-4.424-21.667-6.636-32.5
			c-1.15-5.632-1.284-14.532-4.025-19.711c-6.324-11.946-29.871-16.682-41.439-21.677c-19.315-8.341-38.631-16.681-57.946-25.022
			c-10.904-4.709-20.413,11.354-9.413,16.104c15.149,6.542,30.299,13.083,45.448,19.625c14.461,6.244,30.679,16.268,46.222,20.477
			c-0.09,3.718,1.833,8.619,2.554,12.15c3.018,14.783,6.036,29.565,9.055,44.348c1.609,7.881,3.218,15.763,4.828,23.644v0.095
			l48.752,238.761c0.115,2.788,0.688,5.473,1.652,7.995c0.417,2.041,0.834,4.082,1.25,6.122c5.107,25.01,10.213,50.019,15.32,75.029
			c0.811,3.971,5.101,6.846,8.992,6.846c127.502,0,255.004,0,382.506,0c18.008,0,36.016,0,54.024,0c12.001,0,12.02-18.65,0-18.65
			c-127.502,0-255.004,0-382.506,0c-15.477,0-30.953,0-46.43,0c-3.482-17.055-6.964-34.109-10.447-51.164
			c2.137,0.42,4.348,0.66,6.623,0.66h0.26l421.849-23.627l0.21-0.016c23.012-1.819,27.693-14.891,32.091-42.199l52.508-207.036
			v-1.163C749.824,228.526,736.711,215.41,720.588,215.41z M146.705,172.353c-0.001,0.01,0.002,0.022,0.001,0.031
			C143.336,169.911,147.16,166.312,146.705,172.353z M679.135,448.664l-0.168,0.82c-4.162,25.992-6.279,26.265-15.099,26.962
			l-421.189,23.59c-4.649-0.073-9.454-2.398-11.303-6.04c-0.276-1.35-0.551-2.701-0.827-4.051v-0.086L181.807,251.13
			c-0.109-3.802-0.811-7.652-1.493-11.388c-0.305-1.685-0.701-3.866-0.929-5.682h541.203c5.505,0,10.044,4.223,10.541,9.6
			L679.135,448.664z"/>
	</g>
	<g>
		<path fill="#d55941" d="M399.734,688.82c0-31.06-25.271-56.328-56.328-56.328s-56.328,25.268-56.328,56.328
			s25.271,56.328,56.328,56.328S399.734,719.88,399.734,688.82z M305.728,688.82c0-20.776,16.902-37.678,37.678-37.678
			c20.777,0,37.678,16.902,37.678,37.678s-16.902,37.678-37.678,37.678C322.63,726.498,305.728,709.597,305.728,688.82z"/>
	</g>
	<g>
		<path fill="#d55941" d="M616.109,688.82c0-31.06-25.271-56.328-56.328-56.328c-31.058,0-56.328,25.268-56.328,56.328
			s25.271,56.328,56.328,56.328C590.838,745.148,616.109,719.88,616.109,688.82z M522.103,688.82
			c0-20.776,16.902-37.678,37.678-37.678c20.777,0,37.678,16.902,37.678,37.678s-16.902,37.678-37.678,37.678
			C539.004,726.498,522.103,709.597,522.103,688.82z"/>
	</g>
	<g>
		<path fill="#d55941" d="M445.736,175.951c0.106,11.995,18.757,12.024,18.65,0c-0.225-25.417-0.45-50.835-0.675-76.252
			c-0.106-11.995-18.756-12.024-18.65,0C445.286,125.116,445.511,150.533,445.736,175.951z"/>
		<path fill="#d55941" d="M454.499,54.852c-12.001,0-12.021,18.65,0,18.65C466.5,73.502,466.519,54.852,454.499,54.852z"/>
		<path fill="#d55941" d="M563.195,124.23c-17.814,18.132-35.627,36.264-53.441,54.395c-8.419,8.569,4.759,21.767,13.187,13.188
			c17.814-18.132,35.628-36.264,53.441-54.395C584.801,128.848,571.623,115.651,563.195,124.23z"/>
		<path fill="#d55941" d="M594.986,115.11c12.001,0,12.02-18.65,0-18.65C582.985,96.46,582.966,115.11,594.986,115.11z"/>
		<path fill="#d55941" d="M333.108,137.984c18.132,17.814,36.263,35.627,54.395,53.441c8.569,8.419,21.767-4.759,13.187-13.188
			c-18.132-17.814-36.263-35.627-54.395-53.441C337.726,116.377,324.528,129.555,333.108,137.984z"/>
		<path fill="#d55941" d="M314.663,115.517c12.001,0,12.02-18.65,0-18.65C302.662,96.867,302.643,115.517,314.663,115.517z"/>
	</g>
	<path fill="#d55941" d="M679.135,448.664l-0.168,0.82c-4.162,25.992-6.279,26.265-15.099,26.962l-421.189,23.59
		c-4.649-0.073-9.454-2.398-11.303-6.04c-0.276-1.35-0.551-2.701-0.827-4.051v-0.086L181.807,251.13
		c-0.109-3.802-0.811-7.652-1.493-11.388c-0.305-1.685-0.701-3.866-0.929-5.682h541.203c5.505,0,10.044,4.223,10.541,9.6
		L679.135,448.664z"/>
	<circle fill="#d55941" cx="343.406" cy="688.82" r="37.678"/>
	<circle fill="#d55941" cx="559.781" cy="688.82" r="37.678"/>
</g>
</svg>
